<svg version="1.1" id="Layer_1" xmlns="http://www.w3.org/2000/svg" xmlns:xlink="http://www.w3.org/1999/xlink" x="0px" y="0px"
	 width="100%" viewBox="0 0 157 148" enable-background="new 0 0 157 148" xml:space="preserve">
<path fill="#FEFEFE" opacity="1.000000" stroke="none" 
	d="
M107.000000,149.000000 
	C71.333336,149.000000 36.166676,149.000000 1.000010,149.000000 
	C1.000006,99.666679 1.000006,50.333355 1.000003,1.000023 
	C53.333317,1.000015 105.666634,1.000015 157.999969,1.000008 
	C157.999969,50.333313 157.999969,99.666626 157.999985,148.999969 
	C141.166672,149.000000 124.333336,149.000000 107.000000,149.000000 
M80.635315,82.581146 
	C80.635315,76.860832 80.635315,71.140511 80.635315,64.985367 
	C78.535301,64.985367 75.361496,64.985367 73.131859,64.985367 
	C73.319145,70.568291 73.903542,75.551682 73.536026,80.463852 
	C73.153854,85.572021 72.161064,90.691086 70.879456,95.662086 
	C68.971581,103.062271 72.613716,108.215004 76.774445,113.566063 
	C83.572464,105.974106 84.297424,103.405579 82.618988,94.259491 
	C81.959343,90.664940 81.425713,87.047272 80.635315,82.581146 
M77.393715,35.987686 
	C75.625626,36.364773 73.756470,36.493202 72.107498,37.163383 
	C66.018677,39.638023 63.040359,46.373795 65.018219,52.807224 
	C66.873169,58.840855 73.025703,62.356094 79.592247,61.134068 
	C85.785217,59.981564 90.070747,54.165287 89.400101,47.598251 
	C88.712181,40.862118 84.443237,37.470001 77.393715,35.987686 
M103.089615,36.949139 
	C100.323746,36.949139 97.557877,36.949139 94.717758,36.949139 
	C94.717758,45.038982 94.717758,52.620995 94.717758,60.745335 
	C100.192642,60.118843 106.476807,62.682514 109.755661,56.847923 
	C111.028946,54.582165 109.160080,50.550617 108.567657,46.180782 
	C112.016586,42.636097 110.858627,39.073002 103.089615,36.949139 
M54.727131,37.110851 
	C54.532936,41.708851 54.177662,46.307407 54.193699,50.904675 
	C54.207409,54.834721 53.600086,57.768520 48.359230,56.291069 
	C48.558773,58.163319 48.709660,59.579044 48.851784,60.912518 
	C57.023022,61.989315 59.786777,59.751717 59.906448,52.136982 
	C59.984207,47.189198 59.921093,42.239204 59.921093,36.894245 
	C58.208351,36.894245 56.922466,36.894245 54.727131,37.110851 
z"/>
<path fill="#090909" opacity="1.000000" stroke="none" 
	d="
M80.735001,83.010635 
	C81.425713,87.047272 81.959343,90.664940 82.618988,94.259491 
	C84.297424,103.405579 83.572464,105.974106 76.774445,113.566063 
	C72.613716,108.215004 68.971581,103.062271 70.879456,95.662086 
	C72.161064,90.691086 73.153854,85.572021 73.536026,80.463852 
	C73.903542,75.551682 73.319145,70.568291 73.131859,64.985367 
	C75.361496,64.985367 78.535301,64.985367 80.635315,64.985367 
	C80.635315,71.140511 80.635315,76.860832 80.735001,83.010635 
z"/>
<path fill="#0C0C0C" opacity="1.000000" stroke="none" 
	d="
M77.799820,36.017418 
	C84.443237,37.470001 88.712181,40.862118 89.400101,47.598251 
	C90.070747,54.165287 85.785217,59.981564 79.592247,61.134068 
	C73.025703,62.356094 66.873169,58.840855 65.018219,52.807224 
	C63.040359,46.373795 66.018677,39.638023 72.107498,37.163383 
	C73.756470,36.493202 75.625626,36.364773 77.799820,36.017418 
M82.076683,43.575886 
	C76.983528,40.247276 72.067833,41.166607 70.197403,45.909477 
	C68.830391,49.375843 69.612106,52.478268 72.617798,54.720871 
	C75.643250,56.978218 78.934006,56.878361 81.692871,54.385445 
	C84.994896,51.401737 85.009109,47.799755 82.076683,43.575886 
z"/>
<path fill="#0C0C0C" opacity="1.000000" stroke="none" 
	d="
M103.523880,36.992821 
	C110.858627,39.073002 112.016586,42.636097 108.567657,46.180782 
	C109.160080,50.550617 111.028946,54.582165 109.755661,56.847923 
	C106.476807,62.682514 100.192642,60.118843 94.717758,60.745335 
	C94.717758,52.620995 94.717758,45.038982 94.717758,36.949139 
	C97.557877,36.949139 100.323746,36.949139 103.523880,36.992821 
M99.236534,53.424953 
	C100.175217,54.511421 101.113892,55.597885 102.052567,56.684345 
	C103.298439,55.605679 104.544304,54.527008 105.790176,53.448345 
	C104.765060,52.348080 103.931702,50.774940 102.668182,50.262577 
	C100.936485,49.560356 98.974808,49.798855 99.236534,53.424953 
M103.128937,41.050476 
	C97.950226,40.248837 99.200127,43.369053 99.786316,46.753014 
	C102.967270,45.915169 106.858284,46.351238 103.128937,41.050476 
z"/>
<path fill="#141414" opacity="1.000000" stroke="none" 
	d="
M55.181854,37.002548 
	C56.922466,36.894245 58.208351,36.894245 59.921093,36.894245 
	C59.921093,42.239204 59.984207,47.189198 59.906448,52.136982 
	C59.786777,59.751717 57.023022,61.989315 48.851784,60.912518 
	C48.709660,59.579044 48.558773,58.163319 48.359230,56.291069 
	C53.600086,57.768520 54.207409,54.834721 54.193699,50.904675 
	C54.177662,46.307407 54.532936,41.708851 55.181854,37.002548 
z"/>
<path fill="#F6F6F6" opacity="1.000000" stroke="none" 
	d="
M82.351532,43.855675 
	C85.009109,47.799755 84.994896,51.401737 81.692871,54.385445 
	C78.934006,56.878361 75.643250,56.978218 72.617798,54.720871 
	C69.612106,52.478268 68.830391,49.375843 70.197403,45.909477 
	C72.067833,41.166607 76.983528,40.247276 82.351532,43.855675 
z"/>
<path fill="#D6D6D6" opacity="1.000000" stroke="none" 
	d="
M99.236893,53.023354 
	C98.974808,49.798855 100.936485,49.560356 102.668182,50.262577 
	C103.931702,50.774940 104.765060,52.348080 105.790176,53.448341 
	C104.544304,54.527008 103.298439,55.605679 102.052567,56.684349 
	C101.113892,55.597885 100.175217,54.511421 99.236893,53.023354 
z"/>
<path fill="#E4E4E4" opacity="1.000000" stroke="none" 
	d="
M103.513794,41.180054 
	C106.858284,46.351238 102.967270,45.915169 99.786316,46.753014 
	C99.200127,43.369053 97.950226,40.248837 103.513794,41.180054 
z"/>
</svg>